<svg width="12" height="10" viewBox="0 0 12 10" fill="none" xmlns="http://www.w3.org/2000/svg">
<g id="Group 793">
<path id="Rectangle 498" d="M0 0H12V10H0V0Z" fill="#011E2D"/>
<g id="ND">
<path id="Vector" d="M9.70703 4.6047C9.26432 4.82581 8.74219 4.93636 8.14062 4.93636H5.76562L5.81641 4.32703L6.51953 4.00694V1.06826L5.84375 0.890855L5.87109 0.285379C6.13411 0.233958 6.48828 0.18768 6.93359 0.146543C7.37891 0.105407 7.79688 0.0848389 8.1875 0.0848389C8.8724 0.0848389 9.42969 0.183823 9.85938 0.381792C10.2917 0.579761 10.6029 0.848433 10.793 1.18781C10.9857 1.52461 11.082 1.91027 11.082 2.34477C11.082 2.84612 10.9635 3.29348 10.7266 3.68684C10.4922 4.07764 10.1523 4.38359 9.70703 4.6047ZM8.03516 0.860003C8.0013 0.860003 7.97786 0.861288 7.96484 0.863859V4.15734H8.25781C8.79427 4.15734 9.15495 4.00179 9.33984 3.6907C9.52474 3.37961 9.61719 3.02609 9.61719 2.63015C9.61719 2.35505 9.5612 2.08252 9.44922 1.81257C9.33984 1.54004 9.16536 1.31379 8.92578 1.13382C8.6888 0.951274 8.39193 0.860003 8.03516 0.860003Z" fill="#16ABF8"/>
<path id="Vector_2" d="M0.839844 1.06822L0.148438 0.74427L0.203125 0.138794H1.80469L4 2.95792V1.00266L3.26562 0.717274L3.35938 0.138794H5.49609L5.39844 0.717274L4.85938 0.975662V4.87848L3.71484 5.04817L1.75 2.54913V4.1226L2.45312 4.36556L2.40234 4.93633H0.132812L0.171875 4.40412L0.839844 4.09946V1.06822Z" fill="#16ABF8"/>
</g>
<g id="NV">
<path id="Vector_3" d="M6.33203 5.91978L5.76562 5.68067L5.84375 5.0752H8.71875L8.62891 5.68067L8.03516 5.91206L8.95312 8.36482L9.84375 5.91978L9.24219 5.68067L9.30078 5.0752H11.5078L11.4492 5.68067L10.9258 5.91206L9.26953 9.77631L7.89062 9.99999L6.33203 5.91978Z" fill="#16ABF8"/>
<path id="Vector_4" d="M0.839844 6.00462L0.148438 5.68067L0.203125 5.0752H1.80469L4 7.89432V5.93906L3.26562 5.65368L3.35938 5.0752H5.49609L5.39844 5.65368L4.85938 5.91206V9.81488L3.71484 9.98457L1.75 7.48553V9.059L2.45312 9.30196L2.40234 9.87273H0.132812L0.171875 9.34053L0.839844 9.03586V6.00462Z" fill="#16ABF8"/>
</g>
</g>
</svg>
