<svg width="212" height="73" viewBox="0 0 212 73" fill="none" xmlns="http://www.w3.org/2000/svg">
<g id="Noord Nav">
<rect id="Rectangle 475" y="0.893799" width="212" height="71.2124" fill="black"/>
<g id="Group 785">
<path id="Line 23" d="M19.3014 8.69606C17.0836 8.70206 15.2914 10.5048 15.2986 12.7225C15.3058 14.9403 17.1096 16.7333 19.3274 16.7273L19.3014 8.69606ZM156.33 8.32533L19.3014 8.69606L19.3274 16.7273L156.356 16.3566L156.33 8.32533Z" fill="#16ABF8"/>
<path id="Line 31" d="M201.444 35.0875C207.534 24.2619 156.353 12.1762 156.353 12.1762" stroke="#16ABF8" stroke-width="8.03147" stroke-linecap="round"/>
<line id="Line 30" y1="-2.67716" x2="182.72" y2="-2.67716" transform="matrix(0.999989 0.00590489 -0.00695965 0.999968 17.5645 37.526)" stroke="#16ABF8" stroke-width="5.35431"/>
<path id="Line 33" d="M23.3302 13.7654C23.3188 11.5477 21.5116 9.7576 19.2938 9.76715C17.0759 9.7767 15.2872 11.5823 15.2987 13.8L23.3302 13.7654ZM15.2987 13.8L15.4128 35.9625L23.4444 35.9279L23.3302 13.7654L15.2987 13.8Z" fill="#16ABF8"/>
<line id="Line 34" y1="-2.67716" x2="20.0859" y2="-2.67716" transform="matrix(0.000143461 0.99998 -1.00002 -0.000118387 172.184 15.8721)" stroke="#16ABF8" stroke-width="5.35431"/>
<path id="Line 38" d="M11.125 57.611L206.141 57.634" stroke="#16ABF8" stroke-width="5.35431" stroke-linecap="round"/>
<path id="Line 36" d="M183.902 47.8574C199.653 47.3753 202.386 43.6828 202.036 34.1682" stroke="#16ABF8" stroke-width="8.03147"/>
<path id="Line 35" d="M20.3272 50.727C18.1092 50.7131 16.3322 48.9042 16.358 46.6867C16.3839 44.4692 18.2029 42.6828 20.4209 42.6966L20.3272 50.727ZM20.4209 42.6966L188.003 43.744L187.91 51.7743L20.3272 50.727L20.4209 42.6966Z" fill="#16ABF8"/>
<text id="Noord Nav_2" transform="matrix(1.00002 0.000118388 0.00014346 0.99998 40.9922 10.251)" fill="#16ABF8" xml:space="preserve" style="white-space: pre" font-family="Neuton" font-size="23.4484" font-weight="800" letter-spacing="0em"><tspan x="0" y="20.7798">Noord Nav</tspan></text>
<path id="Line 39" d="M15.3094 45.0538C15.3094 47.2716 17.1073 49.0695 19.3252 49.0695C21.5431 49.0695 23.341 47.2716 23.341 45.0538L15.3094 45.0538ZM15.3094 25.7787L15.3094 45.0538L23.341 45.0538L23.341 25.7787L15.3094 25.7787Z" fill="#16ABF8"/>
</g>
</g>
</svg>
