<?xml version="1.0" encoding="UTF-8"?>
<svg fill="none" viewBox="0 0 217 78" xmlns="http://www.w3.org/2000/svg">
<g clip-path="url(#a)">
<path d="m400.1-0.7063h-583.42v205.92h583.42v-205.92z" fill="#000"/>
<path d="m205.97 38.759c6.221-10.978-46.121-23.266-46.121-23.266" stroke="#16ABF8" stroke-linecap="round" stroke-width="2.2555"/>
<path d="m17.958 39.451 186.84 1.1959" stroke="#16ABF8" stroke-width="2.2555"/>
<path d="m177.92 19.253 0.016 20.374" stroke="#16ABF8" stroke-width="2.2555"/>
<path d="m11.375 61.501 199.41 0.1318" stroke="#16ABF8" stroke-linecap="round" stroke-width="3.2489"/>
<path d="m189.47 48.314c14.579-0.3345 17.106-2.9417 16.777-9.6627" stroke="#16ABF8" stroke-width="2.2555"/>
<path d="m151.87 30.246-1.531-0.94 0.328-1.9314 8.114 0.0053-0.298 2.0924-1.394 0.7637 1.863 5.0852 1.826-5.1766-1.201-0.8593 0.358-1.9046 5.729 0.0038-0.373 2.0924-1.289 0.7637-3.892 9.4812-4.184 0.346-4.056-9.8218z" fill="#16ABF8"/>
<path d="m137.19 38.298c-0.29-0.4921-0.435-1.0332-0.436-1.6234-1e-3 -1.0016 0.314-1.8286 0.943-2.481 0.63-0.6524 1.469-1.1213 2.518-1.4068 1.06-0.2944 2.235-0.4233 3.525-0.3867l-1e-3 -1.3146c0-0.2861-0.111-0.5321-0.331-0.7379-0.21-0.2058-0.475-0.3089-0.795-0.3091-0.41-3e-4 -0.839 0.2141-1.289 0.643-0.44 0.42-0.789 0.9161-1.049 1.4883-0.579-0.0541-1.085-0.1841-1.515-0.39-0.42-0.2059-0.74-0.4566-0.96-0.7519-0.22-0.3041-0.331-0.6261-0.331-0.966-1e-3 -1.0552 0.539-1.8195 1.618-2.2927 1.089-0.4822 2.484-0.7227 4.184-0.7216 1.509 1e-3 2.734 0.3103 3.674 0.928 0.941 0.6177 1.412 1.6374 1.413 3.0594l2e-3 3.5815c1e-3 0.5276 0.046 0.9479 0.137 1.261 0.1 0.3131 0.245 0.5502 0.435 0.7112 0.19 0.1522 0.44 0.2731 0.75 0.3627l0.42 0.1076-0.374 2.1192c-0.919 0.5181-1.798 0.7768-2.638 0.7763-0.84-6e-4 -1.5-0.1754-1.98-0.5245s-0.746-0.8456-0.796-1.4895l-0.016-0.1744-0.209-1e-4c-0.07 0.3487-0.284 0.6884-0.644 1.019-0.35 0.3307-0.795 0.6031-1.335 0.8174-0.529 0.2053-1.084 0.3078-1.664 0.3074-0.76-5e-4 -1.42-0.144-1.98-0.4305-0.55-0.2955-0.975-0.6892-1.276-1.1813zm4.557-3.5652c-0.28 0.2145-0.42 0.4782-0.42 0.7912 1e-3 0.3756 0.096 0.6529 0.286 0.8319 0.201 0.17 0.5 0.2552 0.9 0.2554 0.41 3e-4 0.82-0.1291 1.23-0.3881l-2e-3 -2.1329c-0.28-2e-4 -0.615 0.0533-1.005 0.1603-0.379 0.1071-0.709 0.2678-0.989 0.4822z" fill="#16ABF8"/>
<path d="m118.16 26.159-2.656-1.1285 0.209-2.1059 6.149 0.0041 8.436 9.8112-6e-3 -6.801-2.82-0.9945 0.359-2.0118 8.203 0.0054-0.373 2.0118-2.069 0.8975 0.01 13.575-4.393 0.5873-7.551-8.6973 5e-3 5.4729 2.7 0.8469-0.194 1.9851-8.713-0.0057 0.149-1.851 2.563-1.0581-8e-3 -10.543z" fill="#16ABF8"/>
<path d="m105.62 22.113 0.6 0.604 0.054 11.871c0 0.5277 0.055 0.948 0.166 1.2611 0.11 0.313 0.27 0.5502 0.48 0.7112 0.21 0.1522 0.486 0.2731 0.825 0.3628l0.42 0.1076-0.373 2.1191c-0.969 0.5181-1.899 0.7768-2.789 0.7762-0.82-5e-4 -1.475-0.1708-1.965-0.511-0.49-0.3491-0.761-0.8143-0.811-1.3956l-0.015-0.1744-0.21-1e-4c-0.24 0.6437-0.699 1.1397-1.378 1.488-0.6702 0.3483-1.5247 0.5221-2.5644 0.5215-1.0103-7e-4 -1.8704-0.2606-2.5803-0.7797-0.7002-0.5192-1.2306-1.2126-1.5912-2.0803-0.3507-0.8676-0.5261-1.8202-0.5268-2.8575-0.0014-1.2163 0.2378-2.3787 0.717-3.4872 0.4889-1.1086 1.2179-2.0113 2.1874-2.7082 0.9794-0.7058 2.1587-1.0583 3.5386-1.0574 0.5297 4e-4 1.0097 0.0901 1.4397 0.2693 0.43 0.1791 0.775 0.4655 1.035 0.8592h0.061l-0.151-1.1001-1e-3 -1.4218-2.116-1.088 0.434-1.9313 5.114-0.3588zm-4.659 8.1929c-0.16-0.0538-0.365-0.0808-0.614-0.0809-0.4501-3e-4 -0.845 0.1559-1.1846 0.4687-0.3402 0.3038-0.5998 0.6971-0.7794 1.1799-0.1796 0.4739-0.2687 0.9523-0.2687 1.4352 7e-4 1.2251 0.167 2.1195 0.4974 2.6831 0.3402 0.5636 0.8699 0.8456 1.5893 0.8461 0.421 3e-4 0.901-0.1201 1.44-0.3612l-4e-3 -5.8486c-0.291-0.1611-0.515-0.2686-0.676-0.3223z" fill="#16ABF8"/>
<path d="m80.262 39.588 0.3136-1.918 1.5743-0.9647-0.0652-6.1437-1.8002-1.0475 0.4034-1.8509 4.9038-0.3857 0.5704 0.5235 0.0021 2.9645 0.2848 2e-4c0.4294-1.1533 0.9787-2.0472 1.648-2.6817 0.6692-0.6435 1.3491-0.965 2.0387-0.9645 0.8797 6e-4 1.5097 0.2335 1.89 0.6988 0.3802 0.4653 0.571 1.0779 0.5717 1.8381 7e-4 0.8853-0.2139 1.8018-0.6433 2.7494-0.9296-0.2152-1.7448-0.323-2.4442-0.3235-1.18-8e-4 -2.1047 0.1327-2.7746 0.4005l0.0035 4.0109 3.3295 0.8473-0.268 2.2533-9.5383-0.0063z" fill="#16ABF8"/>
<path d="m76.542 39.21c-1.0095 0.5448-2.2393 0.8168-3.6888 0.8158-2.32-0.0015-4.0098-0.5527-5.0704-1.6533-1.0607-1.1006-1.5919-2.7375-1.5935-4.9105-1e-3 -1.3415 0.323-2.5172 0.9721-3.5273s1.5083-1.7831 2.5777-2.319c1.0691-0.5358 2.2091-0.8033 3.4186-0.8025 2.1299 0.0014 3.7449 0.5256 4.8456 1.5726 1.1001 1.047 1.6515 2.5856 1.6529 4.6155 0.0014 1.4935-0.2624 2.7676-0.792 3.8225-0.529 1.0459-1.3028 1.8413-2.3222 2.3862zm-2.466-8.1976c-0.3409-0.8498-0.8362-1.2749-1.4858-1.2754-0.5199-3e-4 -0.8847 0.2722-1.0945 0.8176-0.1992 0.5364-0.2988 1.359-0.2974 2.468 0 0.8317 0.0912 1.5605 0.2715 2.1866s0.4307 1.1137 0.7506 1.4627c0.3207 0.34 0.6855 0.5101 1.0952 0.5104 0.4504 4e-4 0.7745-0.2678 0.9744-0.8042 0.1993-0.5364 0.2989-1.3367 0.2982-2.4009-7e-4 -1.1357-0.1719-2.124-0.5122-2.9648z" fill="#16ABF8"/>
<path d="m62.114 39.201c-1.0094 0.5449-2.239 0.8167-3.6887 0.8158-2.3196-0.0015-4.0097-0.5526-5.0703-1.6533-1.0606-1.1006-1.5918-2.7375-1.5935-4.9106-1e-3 -1.3413 0.323-2.5171 0.9721-3.5272s1.5083-1.7831 2.5778-2.3189c1.0694-0.5359 2.2089-0.8034 3.4186-0.8026 2.1297 0.0014 3.7448 0.5256 4.8454 1.5726 1.1005 1.047 1.6517 2.5855 1.6532 4.6156 0.0011 1.4934-0.2629 2.7675-0.7919 3.8224-0.5291 1.046-1.3033 1.8414-2.3227 2.3862zm-2.4659-8.1976c-0.3405-0.8498-0.8358-1.2749-1.4857-1.2753-0.5199-4e-4 -0.8846 0.2721-1.0941 0.8175-0.1996 0.5365-0.2989 1.3591-0.298 2.468 6e-4 0.8317 0.0911 1.5606 0.2715 2.1867 0.1805 0.6261 0.4309 1.1136 0.751 1.4626 0.3202 0.34 0.6853 0.5102 1.0952 0.5104 0.4499 3e-4 0.7747-0.2677 0.9742-0.8042 0.1995-0.5364 0.299-1.3367 0.2981-2.4009-8e-4 -1.1357-0.1716-2.124-0.5122-2.9648z" fill="#16ABF8"/>
<path d="m32.92 26.103-2.6554-1.1286 0.2083-2.1058 6.1489 4e-3 8.4359 9.8113-0.0052-6.8009-2.8202-0.9945 0.3584-2.0119 8.2034 0.0054-0.3734 2.0119-2.0689 0.8973 0.0104 13.575-4.3937 0.5873-7.5502-8.6973 0.0042 5.473 2.7001 0.8468-0.1934 1.9852-8.7134-0.0058 0.1486-1.851 2.5637-1.0581-0.0081-10.543z" fill="#16ABF8"/>
<line transform="matrix(-1 .0024328 -.0038677 -.99999 160.06 14.327)" x2="139.9" y1="-1.1277" y2="-1.1277" stroke="#16ABF8" stroke-width="2.2555"/>
<line x1="19.193" x2="19.193" y1="14.661" y2="49.646" stroke="#16ABF8" stroke-width="2.2555"/>
<line transform="matrix(-1 .0019439 -.0030903 -1 189.47 47.314)" x2="171.41" y1="-1.1277" y2="-1.1277" stroke="#16ABF8" stroke-width="2.2555"/>
</g>
<defs>
<clipPath id="a">
<rect width="216.78" height="77.18" fill="#fff"/>
</clipPath>
</defs>
</svg>
